<?xml version="1.0" encoding="UTF-8"?>
<!DOCTYPE svg PUBLIC "-//W3C//DTD SVG 1.1//EN" "http://www.w3.org/Graphics/SVG/1.1/DTD/svg11.dtd">
<svg xmlns="http://www.w3.org/2000/svg" version="1.1" width="180px" height="180px" style="shape-rendering:geometricPrecision; text-rendering:geometricPrecision; image-rendering:optimizeQuality; fill-rule:evenodd; clip-rule:evenodd" xmlns:xlink="http://www.w3.org/1999/xlink">
<g><path style="opacity:1" fill="#7f00fe" d="M -0.5,-0.5 C 59.5,-0.5 119.5,-0.5 179.5,-0.5C 179.5,59.5 179.5,119.5 179.5,179.5C 119.5,179.5 59.5,179.5 -0.5,179.5C -0.5,119.5 -0.5,59.5 -0.5,-0.5 Z"/></g>
<g><path style="opacity:1" fill="#fefdff" d="M 150.5,46.5 C 126.148,76.6947 102.315,107.361 79,138.5C 74.4323,142.986 68.9323,144.653 62.5,143.5C 50.5302,134.361 39.0302,124.694 28,114.5C 23.6899,96.1514 30.8566,87.6514 49.5,89C 55.7139,92.5383 61.3806,96.8716 66.5,102C 67.1667,102.667 67.8333,102.667 68.5,102C 87.2122,77.4099 106.046,52.9099 125,28.5C 133.322,21.6249 141.322,21.9582 149,29.5C 151.693,34.9544 152.193,40.6211 150.5,46.5 Z"/></g>
<g><path style="opacity:1" fill="#9934ff" d="M 62.5,143.5 C 68.9323,144.653 74.4323,142.986 79,138.5C 102.315,107.361 126.148,76.6947 150.5,46.5C 162.268,42.7624 167.768,47.0957 167,59.5C 143.423,90.9888 120.089,122.655 97,154.5C 93.1779,160.041 88.0112,161.874 81.5,160C 74.6784,155.008 68.3451,149.508 62.5,143.5 Z"/></g>
</svg>
